<?xml version="1.0" encoding="UTF-8"?>
<svg version="1.1" xmlns="http://www.w3.org/2000/svg" width="512" height="512">
<path d="M0 0 C1.20996643 -0.00700928 2.41993286 -0.01401855 3.66656494 -0.02124023 C6.9436471 -0.03569206 10.22006841 -0.03249862 13.49713898 -0.01972389 C16.95302038 -0.00948107 20.40886267 -0.01902044 23.86474609 -0.02526855 C29.6644667 -0.03251258 35.46398248 -0.02304329 41.26367188 -0.00390625 C47.93544877 0.01785643 54.60673644 0.01080273 61.27850151 -0.01121187 C67.04286779 -0.02945921 72.8070882 -0.031879 78.57147408 -0.0214572 C81.99847537 -0.01527311 85.42524797 -0.01424402 88.85223389 -0.02760315 C92.6778599 -0.03784368 96.50256684 -0.02216127 100.328125 0 C101.99467133 -0.01214539 101.99467133 -0.01214539 103.69488525 -0.02453613 C117.95658187 0.1273254 130.21969111 5.07619309 140.8515625 14.58007812 C153.01113641 27.61865738 155.69894406 42.81043343 155.61010742 59.93579102 C155.6014952 62.47491983 155.63061405 65.01186781 155.66210938 67.55078125 C155.66371929 69.17382746 155.66314787 70.79687763 155.66015625 72.41992188 C155.67139023 73.17409897 155.68262421 73.92827606 155.69419861 74.70530701 C155.6476726 78.20165045 155.41786165 80.17255783 153.32055664 83.02368164 C151.1640625 84.51757812 151.1640625 84.51757812 148.1640625 84.51757812 C148.1640625 90.78757812 148.1640625 97.05757813 148.1640625 103.51757812 C149.8140625 104.17757812 151.4640625 104.83757812 153.1640625 105.51757812 C155.69236689 108.04588252 155.41516109 108.88620476 155.41853809 112.38692379 C155.42437029 113.42217408 155.43020248 114.45742437 155.43621141 115.52404588 C155.43243208 116.67021948 155.42865276 117.81639307 155.42475891 118.99729919 C155.42858446 120.20814542 155.43241001 121.41899165 155.43635148 122.66653019 C155.44491466 126.03851799 155.44443646 129.41028891 155.44017088 132.78227079 C155.43771285 136.41507529 155.44670665 140.04785373 155.45420837 143.6806488 C155.46698629 150.80418812 155.46874497 157.9276898 155.46640811 165.05123865 C155.4646271 170.84391234 155.46636994 176.63657458 155.47063255 182.4292469 C155.47122774 183.25285762 155.47182293 184.07646834 155.47243616 184.92503696 C155.4736479 186.59815685 155.47486203 188.27127674 155.47607853 189.94439662 C155.48696739 205.65360106 155.48478608 221.36278407 155.47869369 237.07198972 C155.47353159 251.43308028 155.48475886 265.79410286 155.50379191 280.15517997 C155.52318459 294.90083465 155.53142327 309.6464572 155.52766865 324.39212471 C155.52575772 332.67053687 155.52823303 340.94889127 155.54238319 349.22729301 C155.5543167 356.28045503 155.55568039 363.33352381 155.54359303 370.38668715 C155.53771616 373.98297259 155.53657134 377.57908768 155.54859543 381.17536163 C155.56150463 385.08199292 155.55096022 388.98836799 155.5382843 392.89500427 C155.54565859 394.02110137 155.55303287 395.14719847 155.56063062 396.30741972 C155.45436643 411.91879183 150.12178173 424.63307009 139.19921875 435.74414062 C129.52601068 444.97552092 116.57993881 449.68648069 103.328125 449.61523438 C102.26464844 449.61201172 101.20117188 449.60878906 100.10546875 449.60546875 C99.01105469 449.59708984 97.91664063 449.58871094 96.7890625 449.58007812 C95.67144531 449.57556641 94.55382812 449.57105469 93.40234375 449.56640625 C90.65619446 449.55467057 87.91015664 449.53825175 85.1640625 449.51757812 C85.16850372 450.20804733 85.17294495 450.89851654 85.17752075 451.60990906 C85.22176697 458.79615205 85.2519344 465.98235633 85.27392578 473.16870117 C85.28285365 475.85071458 85.29676968 478.53263328 85.31494141 481.21459961 C85.33919969 485.06952623 85.35054809 488.92430786 85.359375 492.77929688 C85.36969757 493.97842209 85.38002014 495.1775473 85.39065552 496.41300964 C85.39080658 497.5337941 85.39095764 498.65457855 85.39111328 499.80932617 C85.3955545 500.7930571 85.39999573 501.77678802 85.40457153 502.79032898 C85.0455504 506.86144464 84.06185737 509.61978325 81.1640625 512.51757812 C78.58998108 512.77827454 78.58998108 512.77827454 75.29321289 512.79223633 C74.06176041 512.80176834 72.83030792 512.81130035 71.5615387 512.82112122 C70.21159843 512.82085979 68.86165814 512.81992277 67.51171875 512.81835938 C66.13170746 512.82224512 64.75169737 512.82657953 63.37168884 512.8313446 C60.47732672 512.83881228 57.58308656 512.83851177 54.6887207 512.83325195 C50.97836012 512.82745817 47.26849887 512.84438282 43.55822086 512.86759663 C40.70748472 512.88232462 37.85686906 512.88320695 35.00610161 512.8800869 C33.63814747 512.88060064 32.27018668 512.88584839 30.90226936 512.89589882 C28.9896538 512.90822554 27.07693759 512.89954213 25.16430664 512.88989258 C23.531213 512.89083672 23.531213 512.89083672 21.86512756 512.89179993 C19.1640625 512.51757812 19.1640625 512.51757812 17.35154724 511.24430847 C14.90516998 507.6870132 15.04104756 504.13621255 15.05053711 499.92285156 C15.05065041 498.24156158 15.05065041 498.24156158 15.05076599 496.52630615 C15.05592728 495.32201965 15.06108856 494.11773315 15.06640625 492.87695312 C15.0678212 491.6396344 15.06923615 490.40231567 15.07069397 489.12750244 C15.0753414 485.84612871 15.08431903 482.56480439 15.09539795 479.28344727 C15.1056473 475.93180802 15.11011391 472.58016664 15.11523438 469.22851562 C15.12626225 462.65818382 15.14299954 456.08788501 15.1640625 449.51757812 C14.47237976 449.52346954 13.78069702 449.52936096 13.0680542 449.53543091 C9.90736052 449.55894414 6.74668532 449.57349242 3.5859375 449.58789062 C2.49780762 449.59731689 1.40967773 449.60674316 0.28857422 449.61645508 C-15.562726 449.6706167 -28.92927431 445.11679094 -40.58203125 433.93164062 C-52.7444118 420.90503546 -55.06151939 407.20389437 -55.18603516 390.03417969 C-55.20263811 388.35630465 -55.22998522 386.67850157 -55.26806641 385.00097656 C-55.32289168 382.56864153 -55.34470818 380.137948 -55.359375 377.70507812 C-55.38204437 376.95911377 -55.40471375 376.21314941 -55.42807007 375.44458008 C-55.41174791 371.41145001 -54.97993469 369.69769872 -52.42822266 366.50585938 C-49.8359375 364.51757812 -49.8359375 364.51757812 -47.8359375 364.51757812 C-47.8359375 358.24757813 -47.8359375 351.97757812 -47.8359375 345.51757812 C-49.1559375 345.18757813 -50.4759375 344.85757812 -51.8359375 344.51757812 C-54.10030417 342.87682045 -54.75108053 342.02789711 -55.21313566 339.24915659 C-55.21416479 338.35208943 -55.21519392 337.45502227 -55.21625423 336.53077126 C-55.22469418 335.49476331 -55.23313412 334.45875537 -55.24182981 333.39135325 C-55.23581977 332.24945674 -55.22980972 331.10756023 -55.22361755 329.93106079 C-55.22900309 328.72077127 -55.23438863 327.51048175 -55.23993737 326.26351678 C-55.2517982 322.89755315 -55.25013159 319.53208253 -55.24277055 316.16613793 C-55.23805318 312.53807263 -55.25053655 308.91006116 -55.26078796 305.28201294 C-55.27801426 298.16928798 -55.27880742 291.05665121 -55.27357506 283.94391079 C-55.26953632 278.15890113 -55.27097342 272.37391756 -55.27632332 266.58890915 C-55.27707174 265.76601137 -55.27782016 264.94311359 -55.27859126 264.09527951 C-55.28012275 262.42353261 -55.2816611 260.75178572 -55.28320623 259.08003883 C-55.29694714 243.3869735 -55.29148426 227.69395796 -55.28002102 212.00089376 C-55.27010487 197.66059486 -55.28299841 183.3204253 -55.30695521 168.98014636 C-55.33137684 154.25026353 -55.34094545 139.52044085 -55.33430248 124.79053819 C-55.33081475 116.52323996 -55.33301183 108.25604098 -55.35055351 99.98875809 C-55.36531458 92.94443422 -55.36586109 85.90027934 -55.3484826 78.85595866 C-55.3399988 75.26544907 -55.33775769 71.6752408 -55.35313416 68.08474731 C-55.36964391 64.18098985 -55.35476685 60.27769181 -55.33714294 56.37393188 C-55.34674795 55.25434259 -55.35635296 54.1347533 -55.36624902 52.98123705 C-55.23570083 38.85353854 -50.28168265 25.14486127 -40.5859375 14.70507812 C-28.87331322 4.033576 -15.64341853 -0.11400544 0 0 Z " fill="#595959" transform="translate(205.8359375,-0.517578125)"/>
<path d="M0 0 C1.20996643 -0.00700928 2.41993286 -0.01401855 3.66656494 -0.02124023 C6.9436471 -0.03569206 10.22006841 -0.03249862 13.49713898 -0.01972389 C16.95302038 -0.00948107 20.40886267 -0.01902044 23.86474609 -0.02526855 C29.6644667 -0.03251258 35.46398248 -0.02304329 41.26367188 -0.00390625 C47.93544877 0.01785643 54.60673644 0.01080273 61.27850151 -0.01121187 C67.04286779 -0.02945921 72.8070882 -0.031879 78.57147408 -0.0214572 C81.99847537 -0.01527311 85.42524797 -0.01424402 88.85223389 -0.02760315 C92.6778599 -0.03784368 96.50256684 -0.02216127 100.328125 0 C101.99467133 -0.01214539 101.99467133 -0.01214539 103.69488525 -0.02453613 C117.95658187 0.1273254 130.21969111 5.07619309 140.8515625 14.58007812 C153.01113641 27.61865738 155.69894406 42.81043343 155.61010742 59.93579102 C155.6014952 62.47491983 155.63061405 65.01186781 155.66210938 67.55078125 C155.66371929 69.17382746 155.66314787 70.79687763 155.66015625 72.41992188 C155.67139023 73.17409897 155.68262421 73.92827606 155.69419861 74.70530701 C155.6476726 78.20165045 155.41786165 80.17255783 153.32055664 83.02368164 C151.1640625 84.51757812 151.1640625 84.51757812 148.1640625 84.51757812 C148.1640625 90.78757812 148.1640625 97.05757813 148.1640625 103.51757812 C149.8140625 104.17757812 151.4640625 104.83757812 153.1640625 105.51757812 C155.69236689 108.04588252 155.41516109 108.88620476 155.41853809 112.38692379 C155.42437029 113.42217408 155.43020248 114.45742437 155.43621141 115.52404588 C155.43243208 116.67021948 155.42865276 117.81639307 155.42475891 118.99729919 C155.42858446 120.20814542 155.43241001 121.41899165 155.43635148 122.66653019 C155.44491466 126.03851799 155.44443646 129.41028891 155.44017088 132.78227079 C155.43771285 136.41507529 155.44670665 140.04785373 155.45420837 143.6806488 C155.46698629 150.80418812 155.46874497 157.9276898 155.46640811 165.05123865 C155.4646271 170.84391234 155.46636994 176.63657458 155.47063255 182.4292469 C155.47122774 183.25285762 155.47182293 184.07646834 155.47243616 184.92503696 C155.4736479 186.59815685 155.47486203 188.27127674 155.47607853 189.94439662 C155.48696739 205.65360106 155.48478608 221.36278407 155.47869369 237.07198972 C155.47353159 251.43308028 155.48475886 265.79410286 155.50379191 280.15517997 C155.52318459 294.90083465 155.53142327 309.6464572 155.52766865 324.39212471 C155.52575772 332.67053687 155.52823303 340.94889127 155.54238319 349.22729301 C155.5543167 356.28045503 155.55568039 363.33352381 155.54359303 370.38668715 C155.53771616 373.98297259 155.53657134 377.57908768 155.54859543 381.17536163 C155.56150463 385.08199292 155.55096022 388.98836799 155.5382843 392.89500427 C155.54565859 394.02110137 155.55303287 395.14719847 155.56063062 396.30741972 C155.45436643 411.91879183 150.12178173 424.63307009 139.19921875 435.74414062 C129.52601068 444.97552092 116.57993881 449.68648069 103.328125 449.61523438 C102.26464844 449.61201172 101.20117188 449.60878906 100.10546875 449.60546875 C99.01105469 449.59708984 97.91664063 449.58871094 96.7890625 449.58007812 C95.67144531 449.57556641 94.55382812 449.57105469 93.40234375 449.56640625 C90.65619446 449.55467057 87.91015664 449.53825175 85.1640625 449.51757812 C85.16850372 450.20804733 85.17294495 450.89851654 85.17752075 451.60990906 C85.22176697 458.79615205 85.2519344 465.98235633 85.27392578 473.16870117 C85.28285365 475.85071458 85.29676968 478.53263328 85.31494141 481.21459961 C85.33919969 485.06952623 85.35054809 488.92430786 85.359375 492.77929688 C85.36969757 493.97842209 85.38002014 495.1775473 85.39065552 496.41300964 C85.39080658 497.5337941 85.39095764 498.65457855 85.39111328 499.80932617 C85.3955545 500.7930571 85.39999573 501.77678802 85.40457153 502.79032898 C85.0455504 506.86144464 84.06185737 509.61978325 81.1640625 512.51757812 C78.58998108 512.77827454 78.58998108 512.77827454 75.29321289 512.79223633 C74.06176041 512.80176834 72.83030792 512.81130035 71.5615387 512.82112122 C70.21159843 512.82085979 68.86165814 512.81992277 67.51171875 512.81835938 C66.13170746 512.82224512 64.75169737 512.82657953 63.37168884 512.8313446 C60.47732672 512.83881228 57.58308656 512.83851177 54.6887207 512.83325195 C50.97836012 512.82745817 47.26849887 512.84438282 43.55822086 512.86759663 C40.70748472 512.88232462 37.85686906 512.88320695 35.00610161 512.8800869 C33.63814747 512.88060064 32.27018668 512.88584839 30.90226936 512.89589882 C28.9896538 512.90822554 27.07693759 512.89954213 25.16430664 512.88989258 C23.531213 512.89083672 23.531213 512.89083672 21.86512756 512.89179993 C19.1640625 512.51757812 19.1640625 512.51757812 17.35154724 511.24430847 C14.90516998 507.6870132 15.04104756 504.13621255 15.05053711 499.92285156 C15.05065041 498.24156158 15.05065041 498.24156158 15.05076599 496.52630615 C15.05592728 495.32201965 15.06108856 494.11773315 15.06640625 492.87695312 C15.0678212 491.6396344 15.06923615 490.40231567 15.07069397 489.12750244 C15.0753414 485.84612871 15.08431903 482.56480439 15.09539795 479.28344727 C15.1056473 475.93180802 15.11011391 472.58016664 15.11523438 469.22851562 C15.12626225 462.65818382 15.14299954 456.08788501 15.1640625 449.51757812 C14.47237976 449.52346954 13.78069702 449.52936096 13.0680542 449.53543091 C9.90736052 449.55894414 6.74668532 449.57349242 3.5859375 449.58789062 C2.49780762 449.59731689 1.40967773 449.60674316 0.28857422 449.61645508 C-15.562726 449.6706167 -28.92927431 445.11679094 -40.58203125 433.93164062 C-52.7444118 420.90503546 -55.06151939 407.20389437 -55.18603516 390.03417969 C-55.20263811 388.35630465 -55.22998522 386.67850157 -55.26806641 385.00097656 C-55.32289168 382.56864153 -55.34470818 380.137948 -55.359375 377.70507812 C-55.38204437 376.95911377 -55.40471375 376.21314941 -55.42807007 375.44458008 C-55.41178685 371.42107187 -54.98212433 369.70064293 -52.4387207 366.515625 C-49.8359375 364.51757812 -49.8359375 364.51757812 -47.66796875 364.36132812 C-46.66830078 364.68617188 -46.66830078 364.68617188 -45.6484375 365.01757812 C-44.63716797 365.31148438 -44.63716797 365.31148438 -43.60546875 365.61132812 C-41.8359375 366.51757812 -41.8359375 366.51757812 -39.8359375 369.51757812 C-39.64309423 371.99983601 -39.55893235 374.37896786 -39.5625 376.86132812 C-39.54218288 378.35091859 -39.52133164 379.84050184 -39.5 381.33007812 C-39.47757603 383.66217101 -39.4609974 385.9939768 -39.45507812 388.32617188 C-39.39689237 401.94163834 -37.90424238 413.37015101 -27.8359375 423.51757812 C-19.4226998 430.32262172 -12.0055189 432.96993692 -1.31420898 432.9375 C-0.2791925 432.94596954 0.75582397 432.95443909 1.82220459 432.96316528 C5.22925234 432.98648556 8.63584737 432.98755881 12.04296875 432.98632812 C14.41755859 432.99343114 16.79214672 433.00113035 19.16673279 433.00939941 C24.13716407 433.0228317 29.10743653 433.02441785 34.07788086 433.01855469 C40.44580859 433.01265073 46.812976 433.04328583 53.18075657 433.08367157 C58.08184411 433.10952002 62.98274766 433.11242871 67.88389397 433.10877991 C70.23184055 433.11047288 72.57979547 433.12013229 74.92767525 433.13792419 C78.20954525 433.16006331 81.48986375 433.15043733 84.77172852 433.1328125 C85.73968857 433.14607574 86.70764862 433.15933899 87.7049408 433.17300415 C92.14336966 433.11763138 95.18828009 432.97607802 98.70591736 430.10632324 C109.30161161 418.94768526 112.92782001 406.49898078 112.79225159 391.36766052 C112.79730646 389.86783234 112.80454252 388.36801023 112.81374973 386.86820179 C112.83256527 382.77757316 112.82049942 378.68754767 112.8030268 374.59693491 C112.78959832 370.17355008 112.8051094 365.75025034 112.81684875 361.32687378 C112.83518851 352.67393275 112.82673776 344.02121816 112.80876053 335.36828428 C112.79471248 328.33394214 112.79084647 321.2996613 112.7942028 314.26530647 C112.79491897 312.76132502 112.79491897 312.76132502 112.7956496 311.22696011 C112.79667597 309.18985055 112.79773133 307.152741 112.79881536 305.11563147 C112.8073749 287.11911602 112.79073118 269.12270962 112.76098633 251.1262207 C112.73214647 233.67695537 112.72506841 216.22784709 112.74047852 198.77856445 C112.75725144 179.76017554 112.76126407 160.74186113 112.74376816 141.72347027 C112.74192384 139.69432486 112.74008911 137.66517944 112.73826408 135.63603401 C112.73735199 134.63774967 112.7364399 133.63946533 112.73550018 132.61092995 C112.72990191 125.58725569 112.7331953 118.56361788 112.73980904 111.5399456 C112.74755209 102.97733548 112.7407545 94.41487977 112.715634 85.8523007 C112.70316202 81.48632804 112.69696444 77.12059551 112.70817566 72.75461388 C112.71825673 68.75310742 112.7096768 64.75207863 112.68659448 60.75063003 C112.68145858 59.30801111 112.68295455 57.86534898 112.69198913 56.42274921 C112.76915945 42.97534109 109.81776157 31.85301232 100.58208275 21.79468727 C96.11544937 17.41313604 93.01182731 15.71467525 86.74327087 15.61331177 C85.82461746 15.63376556 84.90596405 15.65421936 83.95947266 15.67529297 C82.47488808 15.66653137 82.47488808 15.66653137 80.96031189 15.65759277 C77.70689452 15.64722319 74.45626019 15.6869529 71.203125 15.72851562 C68.92923452 15.73396353 66.65533621 15.73673941 64.38143921 15.73696899 C59.62173942 15.74468689 54.86296531 15.77559953 50.10351562 15.82470703 C44.02196901 15.88689739 37.94131034 15.90554583 31.85947609 15.90849876 C27.16492124 15.91321521 22.47055274 15.93404567 17.77607346 15.96037674 C15.53473799 15.97238558 13.29338236 15.98111708 11.05202103 15.98643112 C7.91015261 15.99772731 4.76910025 16.02896646 1.62744141 16.06591797 C0.71283646 16.06612946 -0.20176849 16.06634094 -1.14408875 16.06655884 C-12.88374057 16.25896865 -22.22429189 20.0620014 -30.65625 28.29492188 C-38.14869168 37.19925583 -39.43522205 48.96281572 -39.3212738 60.1706543 C-39.32524723 61.37471483 -39.32922065 62.57877537 -39.33331448 63.81932259 C-39.34035881 67.12118892 -39.32977294 70.42242762 -39.31144774 73.72423196 C-39.2960947 77.30014562 -39.3041712 80.87601809 -39.30947876 84.45195007 C-39.31572295 90.63523901 -39.30804333 96.81838071 -39.29122734 103.00164795 C-39.26735922 111.94684721 -39.27042776 120.89188933 -39.28085578 129.83710718 C-39.29752612 144.36032867 -39.30014219 158.88351132 -39.2902832 173.40673828 C-39.28970026 174.27432534 -39.28911732 175.14191239 -39.28851671 176.03578997 C-39.28178078 185.72664136 -39.27269879 195.41748941 -39.26220703 205.1083374 C-39.2584664 208.62935376 -39.25480697 212.1503702 -39.2512207 215.67138672 C-39.25032979 216.540334 -39.24943887 217.40928128 -39.24852096 218.3045603 C-39.23423733 232.78613231 -39.23933772 247.26762932 -39.25914341 261.74919415 C-39.27047197 270.67510109 -39.26468131 279.60068294 -39.23686457 288.52655536 C-39.2189964 294.63491942 -39.2188185 300.74311761 -39.23265319 306.85149163 C-39.24001665 310.37634913 -39.23908766 313.9007096 -39.21636772 317.42551231 C-39.1919164 321.24401365 -39.20588512 325.06181995 -39.22361755 328.88037109 C-39.21021582 329.99698718 -39.19681408 331.11360327 -39.18300623 332.26405621 C-39.26320493 339.73855579 -39.26320493 339.73855579 -42.18280125 343.70974731 C-44.8359375 345.51757812 -44.8359375 345.51757812 -47.8984375 346.08007812 C-51.52451318 345.38572321 -52.5376754 344.35853683 -54.8359375 341.51757812 C-55.33733416 339.1249581 -55.33733416 339.1249581 -55.33930206 336.40772343 C-55.34973305 335.36972444 -55.36016404 334.33172545 -55.37091112 333.26227194 C-55.36198823 332.12328827 -55.35306535 330.9843046 -55.34387207 329.81080627 C-55.35011203 328.59966233 -55.356352 327.38851838 -55.36278105 326.1406731 C-55.37599363 322.77682461 -55.37121437 319.41386702 -55.35883617 316.05007231 C-55.34979978 312.42269842 -55.36374895 308.79540337 -55.37475586 305.16804504 C-55.39256568 298.05876954 -55.3886888 290.94966274 -55.3771053 283.84038056 C-55.36807451 278.05825025 -55.36684546 272.27616724 -55.37120056 266.49403191 C-55.37181349 265.67126961 -55.37242643 264.84850732 -55.37305793 264.00081284 C-55.37433685 262.32930747 -55.37563371 260.65780211 -55.3769483 258.98629677 C-55.38836295 243.29988426 -55.37522987 227.61356513 -55.35374683 211.92716794 C-55.33590497 198.48403181 -55.33895415 185.04103398 -55.35742188 171.59790039 C-55.37886468 155.98186639 -55.38723271 140.36591453 -55.37497282 124.74986786 C-55.37369867 123.08173399 -55.37244119 121.41360012 -55.37120056 119.74546623 C-55.37058346 118.92477058 -55.36996636 118.10407493 -55.36933056 117.25850971 C-55.36588563 111.49171728 -55.3716881 105.72497715 -55.38111877 99.95819283 C-55.3923794 92.91754423 -55.38921511 85.87707384 -55.3679958 78.83644546 C-55.35753503 75.24796035 -55.35327715 71.65977149 -55.36659241 68.07128906 C-55.38084911 64.16976212 -55.36374278 60.26871248 -55.34387207 56.36720276 C-55.35279496 55.24829558 -55.36171784 54.12938841 -55.37091112 52.97657496 C-55.23209951 38.85095556 -50.28069783 25.14380088 -40.5859375 14.70507812 C-28.87331322 4.033576 -15.64341853 -0.11400544 0 0 Z " fill="#434343" transform="translate(205.8359375,-0.517578125)"/>
<path d="M0 0 C2.52830439 2.52830439 2.25109859 3.36862663 2.25447559 6.86934566 C2.26030779 7.90459596 2.26613998 8.93984625 2.27214891 10.00646776 C2.26836958 11.15264135 2.26459026 12.29881494 2.26069641 13.47972107 C2.26452196 14.6905673 2.26834751 15.90141353 2.27228898 17.14895207 C2.28085216 20.52093986 2.28037396 23.89271079 2.27610838 27.26469266 C2.27365035 30.89749717 2.28264415 34.5302756 2.29014587 38.16307068 C2.30292379 45.28661 2.30468247 52.41011168 2.30234561 59.53366052 C2.3005646 65.32633422 2.30230744 71.11899646 2.30657005 76.91166878 C2.30716524 77.7352795 2.30776043 78.55889021 2.30837366 79.40745883 C2.3095854 81.08057872 2.31079953 82.75369861 2.31201603 84.4268185 C2.32290489 100.13602294 2.32072358 115.84520594 2.31463119 131.5544116 C2.30946909 145.91550216 2.32069636 160.27652473 2.33972941 174.63760184 C2.35912209 189.38325652 2.36736077 204.12887908 2.36360615 218.87454659 C2.36169522 227.15295874 2.36417053 235.43131314 2.37832069 243.70971489 C2.3902542 250.7628769 2.39161789 257.81594568 2.37953053 264.86910903 C2.37365366 268.46539447 2.37250884 272.06150955 2.38453293 275.65778351 C2.39744213 279.56441479 2.38689772 283.47078986 2.3742218 287.37742615 C2.38159609 288.50352324 2.38897037 289.62962034 2.39656812 290.78984159 C2.29030393 306.40121371 -3.04228077 319.11549197 -13.96484375 330.2265625 C-23.63805182 339.45794279 -36.58412369 344.16890256 -49.8359375 344.09765625 C-50.89941406 344.09443359 -51.96289062 344.09121094 -53.05859375 344.08789062 C-54.15300781 344.07951172 -55.24742187 344.07113281 -56.375 344.0625 C-57.49261719 344.05798828 -58.61023438 344.05347656 -59.76171875 344.04882812 C-62.50786804 344.03709244 -65.25390586 344.02067363 -68 344 C-67.99555878 344.69046921 -67.99111755 345.38093842 -67.98654175 346.09233093 C-67.94229553 353.27857392 -67.9121281 360.46477821 -67.89013672 367.65112305 C-67.88120885 370.33313646 -67.86729282 373.01505515 -67.84912109 375.69702148 C-67.82486281 379.5519481 -67.81351441 383.40672973 -67.8046875 387.26171875 C-67.79436493 388.46084396 -67.78404236 389.65996918 -67.77340698 390.89543152 C-67.77325592 392.01621597 -67.77310486 393.13700043 -67.77294922 394.29174805 C-67.768508 395.27547897 -67.76406677 396.2592099 -67.75949097 397.27275085 C-68.1185121 401.34386651 -69.10220513 404.10220513 -72 407 C-74.57408142 407.26069641 -74.57408142 407.26069641 -77.87084961 407.2746582 C-79.10230209 407.28419022 -80.33375458 407.29372223 -81.6025238 407.30354309 C-82.95246407 407.30328167 -84.30240436 407.30234464 -85.65234375 407.30078125 C-87.03235504 407.30466699 -88.41236513 407.30900141 -89.79237366 407.31376648 C-92.68673578 407.32123415 -95.58097594 407.32093364 -98.4753418 407.31567383 C-102.18570238 407.30988004 -105.89556363 407.32680469 -109.60584164 407.3500185 C-112.45657778 407.36474649 -115.30719344 407.36562883 -118.15796089 407.36250877 C-119.52591503 407.36302252 -120.89387582 407.36827027 -122.26179314 407.37832069 C-124.1744087 407.39064742 -126.08712491 407.381964 -127.99975586 407.37231445 C-129.6328495 407.37325859 -129.6328495 407.37325859 -131.29893494 407.3742218 C-134 407 -134 407 -135.81251526 405.72673035 C-138.25889252 402.16943507 -138.12301494 398.61863443 -138.11352539 394.40527344 C-138.11341209 392.72398346 -138.11341209 392.72398346 -138.11329651 391.00872803 C-138.10813522 389.80444153 -138.10297394 388.60015503 -138.09765625 387.359375 C-138.0962413 386.12205627 -138.09482635 384.88473755 -138.09336853 383.60992432 C-138.0887211 380.32855059 -138.07974347 377.04722627 -138.06866455 373.76586914 C-138.0584152 370.41422989 -138.05394859 367.06258852 -138.04882812 363.7109375 C-138.03780025 357.14060569 -138.02106296 350.57030689 -138 344 C-138.69168274 344.00589142 -139.38336548 344.01178284 -140.0960083 344.01785278 C-143.25670198 344.04136601 -146.41737718 344.0559143 -149.578125 344.0703125 C-150.66625488 344.07973877 -151.75438477 344.08916504 -152.87548828 344.09887695 C-168.7267885 344.15303857 -182.09333681 339.59921282 -193.74609375 328.4140625 C-205.9084743 315.38745733 -208.22558189 301.68631625 -208.35009766 284.51660156 C-208.36670061 282.83872652 -208.39404772 281.16092344 -208.43212891 279.48339844 C-208.48695418 277.05106341 -208.50877068 274.62036988 -208.5234375 272.1875 C-208.54610687 271.44153564 -208.56877625 270.69557129 -208.59213257 269.92700195 C-208.57584935 265.90349374 -208.14618683 264.1830648 -205.6027832 260.99804688 C-203 259 -203 259 -200.83203125 258.84375 C-199.83236328 259.16859375 -199.83236328 259.16859375 -198.8125 259.5 C-197.80123047 259.79390625 -197.80123047 259.79390625 -196.76953125 260.09375 C-195 261 -195 261 -193 264 C-192.80715673 266.48225788 -192.72299485 268.86138973 -192.7265625 271.34375 C-192.70624538 272.83334046 -192.68539414 274.32292372 -192.6640625 275.8125 C-192.64163853 278.14459289 -192.6250599 280.47639868 -192.61914062 282.80859375 C-192.56095487 296.42406021 -191.06830488 307.85257289 -181 318 C-172.04606739 325.24238443 -164.45102288 327.44998319 -153.10473633 327.41992188 C-151.92330048 327.42839142 -150.74186462 327.43686096 -149.52462769 327.44558716 C-146.29902973 327.46491786 -143.07378818 327.47073821 -139.84814286 327.46883965 C-137.14486286 327.46871945 -134.44163614 327.47730429 -131.73837107 327.48561716 C-125.35215547 327.5048212 -118.96607054 327.50774714 -112.57983398 327.50097656 C-106.01943859 327.49434834 -99.45960723 327.51715714 -92.89932615 327.55429029 C-87.24465916 327.58512114 -81.59017228 327.59633263 -75.93542308 327.59245348 C-72.56798099 327.59039845 -69.20132478 327.59794554 -65.83390236 327.62034607 C-62.06956711 327.64262611 -58.30656931 327.63278468 -54.54223633 327.61523438 C-53.44623611 327.62849762 -52.3502359 327.64176086 -51.22102356 327.65542603 C-40.70682897 327.54225099 -31.34092708 324.23814676 -23.6796875 316.87890625 C-15.44099649 307.66306816 -13.54650234 297.80936494 -13.62818909 285.74528503 C-13.62436452 284.53576953 -13.62053996 283.32625402 -13.6165995 282.08008653 C-13.60895198 278.7444945 -13.61458993 275.40941254 -13.62589633 272.07386363 C-13.63478442 268.4685822 -13.62623645 264.86333717 -13.61968994 261.25805664 C-13.61055205 255.01797779 -13.61184766 248.77797256 -13.61987495 242.5378933 C-13.63112155 233.51153171 -13.62205291 224.48527469 -13.60731315 215.45892219 C-13.58356531 200.80700786 -13.57017901 186.15510647 -13.56616211 171.50317383 C-13.56591724 170.62708123 -13.56567237 169.75098862 -13.56542008 168.84834776 C-13.56287213 159.06584975 -13.56230858 149.28335274 -13.56335449 139.50085449 C-13.56368755 135.94889323 -13.56397293 132.39693197 -13.56420898 128.8449707 C-13.56430317 127.53016435 -13.56430317 127.53016435 -13.56439925 126.18879624 C-13.5650036 111.58418352 -13.55014538 96.97963055 -13.52337593 82.37504274 C-13.50755569 73.36807476 -13.50532849 64.36129947 -13.52050995 55.35432938 C-13.52995645 49.1889423 -13.52524856 43.02367169 -13.50929613 36.85829832 C-13.50057969 33.29923873 -13.4985142 29.7404883 -13.51382256 26.18144417 C-13.53026818 22.32740795 -13.51606344 18.47383752 -13.49879456 14.61979675 C-13.50860133 13.48975745 -13.51840811 12.35971815 -13.52851206 11.19543523 C-13.51411582 9.65041183 -13.51411582 9.65041183 -13.49942875 8.07417583 C-13.49958975 6.73956217 -13.49958975 6.73956217 -13.49975401 5.37798661 C-12.83751529 2.22684669 -11.43986757 1.02853594 -9 -1 C-5.49243283 -2.58406259 -3.35193104 -1.67596552 0 0 Z " fill="#000000" transform="translate(359,105)"/>
<path d="M0 0 C1.20996643 -0.00700928 2.41993286 -0.01401855 3.66656494 -0.02124023 C6.9436471 -0.03569206 10.22006841 -0.03249862 13.49713898 -0.01972389 C16.95302038 -0.00948107 20.40886267 -0.01902044 23.86474609 -0.02526855 C29.6644667 -0.03251258 35.46398248 -0.02304329 41.26367188 -0.00390625 C47.93544877 0.01785643 54.60673644 0.01080273 61.27850151 -0.01121187 C67.04286779 -0.02945921 72.8070882 -0.031879 78.57147408 -0.0214572 C81.99847537 -0.01527311 85.42524797 -0.01424402 88.85223389 -0.02760315 C92.6778599 -0.03784368 96.50256684 -0.02216127 100.328125 0 C101.99467133 -0.01214539 101.99467133 -0.01214539 103.69488525 -0.02453613 C117.95658187 0.1273254 130.21969111 5.07619309 140.8515625 14.58007812 C153.01113641 27.61865738 155.69894406 42.81043343 155.61010742 59.93579102 C155.6014952 62.47491983 155.63061405 65.01186781 155.66210938 67.55078125 C155.66371929 69.17382746 155.66314787 70.79687763 155.66015625 72.41992188 C155.67139023 73.17409897 155.68262421 73.92827606 155.69419861 74.70530701 C155.64776383 78.19479437 155.43296143 80.15792092 153.31665039 82.98852539 C151.1640625 84.51757812 151.1640625 84.51757812 148.2265625 85.08007812 C144.07784631 84.31806903 142.79025233 82.77585713 140.1640625 79.51757812 C139.55224609 76.17114258 139.55224609 76.17114258 139.5625 72.38085938 C139.55449371 71.70137741 139.54648743 71.02189545 139.53823853 70.32182312 C139.51526293 68.15729601 139.52456919 65.99465339 139.5390625 63.83007812 C139.56324922 50.45028666 138.91032096 38.4148473 130.1640625 27.51757812 C120.34960357 18.42840154 110.42695258 16.0539193 97.35546875 16.12939453 C96.21915009 16.12413757 95.08283142 16.11888062 93.91207886 16.11346436 C90.18343052 16.10034008 86.45521463 16.10897591 82.7265625 16.11914062 C80.11922118 16.11711772 77.51188041 16.11420449 74.90454102 16.11044312 C69.45096212 16.10500389 63.99750558 16.11212871 58.54394531 16.12646484 C52.26248014 16.14278793 45.98130723 16.13749811 39.69984913 16.12098563 C33.62683593 16.10566752 27.55395105 16.10736983 21.48092651 16.11613083 C18.91022704 16.1181253 16.33952005 16.11570016 13.76882935 16.10869217 C10.16990695 16.10103309 6.57153769 16.112745 2.97265625 16.12939453 C1.92093231 16.12332184 0.86920837 16.11724915 -0.21438599 16.11099243 C-12.39688665 16.21486377 -21.86716686 19.71330637 -30.65625 28.29492188 C-38.14869168 37.19925583 -39.43522205 48.96281572 -39.3212738 60.1706543 C-39.32524723 61.37471483 -39.32922065 62.57877537 -39.33331448 63.81932259 C-39.34035881 67.12118892 -39.32977294 70.42242762 -39.31144774 73.72423196 C-39.2960947 77.30014562 -39.3041712 80.87601809 -39.30947876 84.45195007 C-39.31572295 90.63523901 -39.30804333 96.81838071 -39.29122734 103.00164795 C-39.26735922 111.94684721 -39.27042776 120.89188933 -39.28085578 129.83710718 C-39.29752612 144.36032867 -39.30014219 158.88351132 -39.2902832 173.40673828 C-39.28970026 174.27432534 -39.28911732 175.14191239 -39.28851671 176.03578997 C-39.28178078 185.72664136 -39.27269879 195.41748941 -39.26220703 205.1083374 C-39.2584664 208.62935376 -39.25480697 212.1503702 -39.2512207 215.67138672 C-39.25032979 216.540334 -39.24943887 217.40928128 -39.24852096 218.3045603 C-39.23423733 232.78613231 -39.23933772 247.26762932 -39.25914341 261.74919415 C-39.27047197 270.67510109 -39.26468131 279.60068294 -39.23686457 288.52655536 C-39.2189964 294.63491942 -39.2188185 300.74311761 -39.23265319 306.85149163 C-39.24001665 310.37634913 -39.23908766 313.9007096 -39.21636772 317.42551231 C-39.1919164 321.24401365 -39.20588512 325.06181995 -39.22361755 328.88037109 C-39.21021582 329.99698718 -39.19681408 331.11360327 -39.18300623 332.26405621 C-39.26320493 339.73855579 -39.26320493 339.73855579 -42.18280125 343.70974731 C-44.8359375 345.51757812 -44.8359375 345.51757812 -47.8984375 346.08007812 C-51.52451318 345.38572321 -52.5376754 344.35853683 -54.8359375 341.51757812 C-55.33733416 339.1249581 -55.33733416 339.1249581 -55.33930206 336.40772343 C-55.34973305 335.36972444 -55.36016404 334.33172545 -55.37091112 333.26227194 C-55.36198823 332.12328827 -55.35306535 330.9843046 -55.34387207 329.81080627 C-55.35011203 328.59966233 -55.356352 327.38851838 -55.36278105 326.1406731 C-55.37599363 322.77682461 -55.37121437 319.41386702 -55.35883617 316.05007231 C-55.34979978 312.42269842 -55.36374895 308.79540337 -55.37475586 305.16804504 C-55.39256568 298.05876954 -55.3886888 290.94966274 -55.3771053 283.84038056 C-55.36807451 278.05825025 -55.36684546 272.27616724 -55.37120056 266.49403191 C-55.37181349 265.67126961 -55.37242643 264.84850732 -55.37305793 264.00081284 C-55.37433685 262.32930747 -55.37563371 260.65780211 -55.3769483 258.98629677 C-55.38836295 243.29988426 -55.37522987 227.61356513 -55.35374683 211.92716794 C-55.33590497 198.48403181 -55.33895415 185.04103398 -55.35742188 171.59790039 C-55.37886468 155.98186639 -55.38723271 140.36591453 -55.37497282 124.74986786 C-55.37369867 123.08173399 -55.37244119 121.41360012 -55.37120056 119.74546623 C-55.37058346 118.92477058 -55.36996636 118.10407493 -55.36933056 117.25850971 C-55.36588563 111.49171728 -55.3716881 105.72497715 -55.38111877 99.95819283 C-55.3923794 92.91754423 -55.38921511 85.87707384 -55.3679958 78.83644546 C-55.35753503 75.24796035 -55.35327715 71.65977149 -55.36659241 68.07128906 C-55.38084911 64.16976212 -55.36374278 60.26871248 -55.34387207 56.36720276 C-55.35279496 55.24829558 -55.36171784 54.12938841 -55.37091112 52.97657496 C-55.23209951 38.85095556 -50.28069783 25.14380088 -40.5859375 14.70507812 C-28.87331322 4.033576 -15.64341853 -0.11400544 0 0 Z " fill="#000000" transform="translate(205.8359375,-0.517578125)"/>
<path d="M0 0 C10.31845007 6.37781499 18.03592171 16.15686052 21 28 C22.76772994 42.83060957 20.14217794 55.01932327 11 67 C3.6309801 75.29014739 -6.74173337 80.47075139 -17.75 81.2734375 C-30.96543909 81.72147122 -41.53677103 79.12005276 -51.78125 70.22265625 C-61.14492195 60.84249896 -65.33286253 50.14264457 -65.5625 37 C-65.45381088 25.13435887 -61.19996626 15.59754038 -53 7 C-38.48840072 -6.84054267 -17.66636943 -9.74611163 0 0 Z " fill="#FCC064" transform="translate(278,187)"/>
<path d="M0 0 C7.71655064 5.3955569 14.18852528 12.85310369 17.625 21.6484375 C17.97949219 22.54046875 18.33398438 23.4325 18.69921875 24.3515625 C21.91615834 35.80766804 20.18273635 48.26617539 14.625 58.6484375 C8.20703868 69.42338101 -1.2585739 75.43249508 -12.6875 79.9609375 C-25.1007827 82.27527834 -37.05540353 80.45145965 -47.6875 73.4609375 C-57.69146898 65.79555867 -62.43016687 57.4829369 -66.375 45.6484375 C-67.36578193 31.84826063 -66.08526735 20.5623341 -57.02734375 9.453125 C-41.68334345 -7.30557036 -20.09820959 -11.43746796 0 0 Z " fill="#EA5468" transform="translate(279.375,55.3515625)"/>
<path d="M0 0 C9.05378576 6.49510718 15.83691951 15.5370623 18.5234375 26.42578125 C19.73372161 36.41390206 19.68398173 46.54562398 14.5234375 55.42578125 C13.92789063 56.51246094 13.92789063 56.51246094 13.3203125 57.62109375 C7.29983716 67.94735209 -2.11125784 74.95205961 -13.4765625 78.42578125 C-27.74409431 81.29856806 -38.7450111 78.9915744 -50.8515625 71.11328125 C-59.08220076 65.00285541 -65.30162452 55.51413847 -67.4765625 45.42578125 C-68.77998845 31.85695211 -67.3319255 20.89277242 -59.2265625 9.61328125 C-44.25002308 -8.31958157 -19.86945705 -12.62995456 0 0 Z " fill="#09B59E" transform="translate(280.4765625,319.57421875)"/>
<path d="M0 0 C3.61613341 2.75839826 6.83402079 5.74003996 10 9 C10.56074219 9.54011719 11.12148438 10.08023438 11.69921875 10.63671875 C23.14438572 22.56252265 25.76260138 38.28801408 25.44140625 54.1015625 C24.6461475 69.62281951 16.38972919 82.41464388 5.37109375 92.96875 C-7.62118454 104.09887308 -23.29908121 107.86949774 -40 107 C-54.45763163 105.19693152 -65.89494574 98.2523046 -76 88 C-76.57363281 87.43667969 -77.14726562 86.87335938 -77.73828125 86.29296875 C-87.21648952 76.22696462 -91.5891761 62.35372082 -91.5 48.8125 C-91.49427979 47.8009082 -91.48855957 46.78931641 -91.48266602 45.74707031 C-91.09190829 29.27998721 -83.70639781 15.68577412 -71.875 4.359375 C-50.33703641 -13.31580164 -23.67849986 -14.36236877 0 0 Z M-68.3125 22.734375 C-70.71768582 25.96355966 -72.53644126 29.25415907 -74 33 C-74.35449219 33.89203125 -74.70898438 34.7840625 -75.07421875 35.703125 C-78.29115834 47.15923054 -76.55773635 59.61773789 -71 70 C-64.72605231 80.53316288 -54.87918404 87.76807368 -43.1875 91.3125 C-31.09882369 93.81779911 -19.60167631 91.76023733 -9.1875 85.1875 C0.76934495 77.94452434 6.74427638 69.00178117 10 57 C11.53289068 44.18134094 9.6440328 33.41264992 2.1875 22.6875 C-5.0472335 13.81436629 -14.5865177 7.09247176 -26 5 C-43.53865548 3.57320074 -56.98189956 9.30213093 -68.3125 22.734375 Z " fill="#020101" transform="translate(289,44)"/>
<path d="M0 0 C13.42820945 9.21817647 21.5112376 21.40166514 25.75 37.05859375 C26.30762927 41.06074546 26.30935908 45.02641615 26.3125 49.0625 C26.32474609 49.87912109 26.33699219 50.69574219 26.34960938 51.53710938 C26.38371743 65.805646 20.49189071 79.10435288 11.125 89.75 C-2.01998524 102.57141637 -17.10502709 108.04696914 -35.2487793 108.06469727 C-50.00666007 107.79654525 -63.22437362 100.92705794 -73.8515625 90.89453125 C-86.60464446 77.37823396 -90.44827718 61.85460902 -89.95507812 43.78125 C-89.32431104 27.78130434 -81.26752177 15.35356597 -69.875 4.75 C-50.05165522 -12.04735134 -22.0364499 -13.02153858 0 0 Z M-51.875 10.75 C-52.63683594 11.17410156 -53.39867187 11.59820312 -54.18359375 12.03515625 C-65.05489585 18.61660221 -70.91949568 27.88348703 -74.875 39.75 C-76.12294593 53.21748821 -75.18333096 65.25696807 -66.3671875 76.046875 C-58.89861727 84.5712117 -49.12171141 91.88753547 -37.55078125 93.09765625 C-23.9582483 93.44158173 -12.33945528 90.38507136 -2.0625 81.25 C-1.340625 80.425 -0.61875 79.6 0.125 78.75 C0.95 77.863125 1.775 76.97625 2.625 76.0625 C11.43352415 65.33059557 12.39591325 53.07363999 11.125 39.75 C8.23930382 27.81900501 0.3628183 18.25763529 -9.875 11.75 C-21.7431995 4.53778646 -39.73329659 3.46497795 -51.875 10.75 Z " fill="#000201" transform="translate(287.875,306.25)"/>
<path d="M0 0 C10.40969364 9.97103556 18.41315599 23.66195686 18.890625 38.34375 C18.89585866 39.95833325 18.89054912 41.57298314 18.875 43.1875 C18.88660156 44.39212891 18.88660156 44.39212891 18.8984375 45.62109375 C18.84834309 61.07521853 11.8646396 74.65252839 1.6015625 85.90625 C-9.23787025 96.38302515 -24.23675209 102.28879395 -39.1875 102.125 C-40.64216675 102.11364014 -40.64216675 102.11364014 -42.1262207 102.10205078 C-49.48259747 101.93310876 -55.697016 100.91552852 -62.375 97.6875 C-63.29023438 97.275 -64.20546875 96.8625 -65.1484375 96.4375 C-80.34855087 88.94388668 -89.11796884 76.83122133 -95.4296875 61.51171875 C-99.73996541 48.63431821 -98.49938222 33.04630417 -93.375 20.6875 C-93.07464844 19.94371094 -92.77429688 19.19992188 -92.46484375 18.43359375 C-85.55459419 3.14728412 -72.43168036 -6.12900884 -57.375 -12.3125 C-37.95278198 -19.13423695 -15.18547378 -12.98001919 0 0 Z M-74.125 16.875 C-82.02833791 27.85492866 -83.85775675 38.47216073 -82.375 51.6875 C-80.30259693 63.00204844 -74.10873912 72.13354948 -65.0625 79.125 C-53.4542772 86.85852189 -42.05506704 88.28451937 -28.44921875 86.25 C-18.40952413 83.68803646 -9.17333842 77.24764051 -3.375 68.6875 C3.54352969 56.63890408 6.1391222 43.87927789 2.75390625 30.15625 C-2.19309386 17.56978415 -10.95063897 8.32217245 -23.25 2.75 C-42.19264755 -3.93433401 -61.27544373 1.59369975 -74.125 16.875 Z " fill="#020101" transform="translate(295.375,181.3125)"/>
<path d="M0 0 C12.54 0 25.08 0 38 0 C38 16.17 38 32.34 38 49 C25.46 49 12.92 49 0 49 C0 32.83 0 16.66 0 0 Z " fill="#9B9B9B" transform="translate(237,448)"/>
<path d="M0 0 C12.47651995 -0.85325744 24.28684442 0.98094276 34.1953125 9.2734375 C40.03221992 14.85766495 45.0319754 20.40362021 48 28 C48.35449219 28.89203125 48.70898438 29.7840625 49.07421875 30.703125 C52.29115834 42.15923054 50.55773635 54.61773789 45 65 C38.58203868 75.77494351 29.1164261 81.78405758 17.6875 86.3125 C12.13500542 87.34771085 6.63070713 87.15241012 1 87 C1 86.67 1 86.34 1 86 C2.88802083 85.64192708 4.77604167 85.28385417 6.6640625 84.92578125 C16.05425396 81.20425052 22.60419774 69.81813955 26.5625 61 C30.11541683 49.91750712 29.89285142 33.6068807 25 23 C20.50420386 14.8771606 15.40357412 6.48074388 7 2 C4.59616012 1.35928781 2.50131145 1.15314152 0 1 C0 0.67 0 0.34 0 0 Z " fill="#E1384F" transform="translate(249,49)"/>
<path d="M0 0 C9.95083053 -0.84329072 18.83343771 2.36291771 26.875 8.25 C34.94461941 15.12247807 41.96632551 24.32784802 43.25439453 35.13427734 C44.22751719 49.40165877 41.80837478 60.45676692 33 72 C26.73477336 79.04837997 17.41218248 84.68772456 8 86 C6.39696373 86.06371368 4.79162328 86.08644214 3.1875 86.0625 C2.39730469 86.05347656 1.60710937 86.04445313 0.79296875 86.03515625 C0.20128906 86.02355469 -0.39039063 86.01195312 -1 86 C-0.319375 85.484375 0.36125 84.96875 1.0625 84.4375 C11.21260546 76.01507207 19.74504493 64.91790442 21.29931641 51.39599609 C21.43677919 48.63124461 21.46770086 45.89293253 21.4375 43.125 C21.42992676 42.15336914 21.42235352 41.18173828 21.41455078 40.18066406 C21.25233707 33.13087988 20.41725381 27.26320203 17 21 C16.55269531 20.13375 16.10539062 19.2675 15.64453125 18.375 C12.49652519 12.70352528 8.76955721 8.35380889 4 4 C2.66666667 2.66666667 1.33333333 1.33333333 0 0 Z " fill="#F9B140" transform="translate(256,182)"/>
<path d="M0 0 C10.21480036 -1.01696021 18.58901592 2.25021314 26.8125 8.25 C35.00286131 15.13701267 41.95114566 24.3441118 43.27050781 35.23242188 C43.95561034 44.67076179 43.86348474 53.63101652 39 62 C38.60296875 62.72445312 38.2059375 63.44890625 37.796875 64.1953125 C31.89750995 74.31384369 22.33342334 81.91640476 11 85 C7.00143163 85.56244638 3.03430062 85.86136424 -1 86 C1.32897255 83.61013928 3.66077078 81.45635829 6.3125 79.4375 C11.04709328 75.39379158 14.03319395 70.41956154 17 65 C17.65742188 63.82050781 17.65742188 63.82050781 18.328125 62.6171875 C23.08032097 52.20920899 23.03834076 36.52453163 19.375 25.75 C18.63840495 24.14030802 17.84693662 22.55447062 17 21 C16.56429688 20.14535156 16.12859375 19.29070312 15.6796875 18.41015625 C12.31814037 12.30242718 8.09561093 7.70447662 3 3 C1.99549556 2.00452482 0.99382734 1.0061348 0 0 Z " fill="#01978B" transform="translate(256,313)"/>
<path d="M0 0 C12.54 0 25.08 0 38 0 C38 6.93 38 13.86 38 21 C25.46 21 12.92 21 0 21 C0 14.07 0 7.14 0 0 Z " fill="#808080" transform="translate(237,448)"/>
</svg>
