<?xml version="1.0" encoding="UTF-8"?>
<svg version="1.1" xmlns="http://www.w3.org/2000/svg" width="512" height="512">
<path d="M0 0 C0.67664615 -0.00453111 1.3532923 -0.00906223 2.05044287 -0.01373065 C4.30491394 -0.02633338 6.55914214 -0.02475698 8.81364441 -0.02310181 C10.43537708 -0.02908966 12.05710691 -0.0358958 13.67883301 -0.04345703 C18.07565129 -0.06109848 22.47239169 -0.06581164 26.86924195 -0.0670886 C29.61885716 -0.06851186 32.36845267 -0.07278476 35.11806297 -0.07808304 C44.71810027 -0.09657745 54.31808208 -0.10475442 63.9181366 -0.10317993 C72.85454537 -0.10197882 81.7907125 -0.12307676 90.72706014 -0.15466726 C98.40964763 -0.18085394 106.09215632 -0.19154622 113.77478808 -0.19026911 C118.35872217 -0.18976017 122.94244147 -0.195406 127.52633095 -0.21662521 C131.83975006 -0.23604788 136.15275037 -0.23610472 140.46618462 -0.22159195 C142.04433431 -0.21950771 143.62251049 -0.22418176 145.20061493 -0.23631287 C157.0288657 -0.32130975 165.41413981 1.12371805 174.24797058 9.34164429 C180.71278633 16.30049617 183.34724484 23.72056109 183.2970953 33.18741798 C183.30090097 33.97077453 183.30470664 34.75413108 183.30862764 35.56122571 C183.31894622 38.19005412 183.31503675 40.81866671 183.31118774 43.44750977 C183.31564001 45.3497957 183.32095401 47.25207978 183.32705647 49.15436113 C183.34124842 54.38517903 183.34289953 59.61593755 183.34245956 64.84677196 C183.34410672 70.48704303 183.35717139 76.12728957 183.36865234 81.76754761 C183.39150968 94.10231506 183.3994238 106.43706531 183.40447879 118.77185106 C183.40773505 126.47374128 183.41425712 134.1756265 183.42148018 141.87751389 C183.44104732 163.20181766 183.45753206 184.52611496 183.46035671 205.85042763 C183.46045077 206.53241035 183.46054483 207.21439307 183.46064175 207.91704194 C183.46102022 210.68077133 183.46138422 213.44450072 183.46174473 216.20823011 C183.46201644 218.28834603 183.46229312 220.36846196 183.46257019 222.44857788 C183.46270222 223.47960423 183.46270222 223.47960423 183.46283693 224.53145939 C183.46574156 246.12236209 183.48783048 267.71317522 183.52409363 289.30404663 C183.56484165 313.56576462 183.58849586 337.827402 183.58881623 362.08916032 C183.5894009 374.93333522 183.59789982 387.77739484 183.62681389 400.62154007 C183.65132181 411.55871639 183.65861456 422.49573538 183.64356636 433.43293174 C183.63639508 439.01215932 183.63726475 444.59107621 183.65997696 450.17026901 C183.68058543 455.28171064 183.67794875 460.39260306 183.65710212 465.50403886 C183.65361083 467.349287 183.65850182 469.19457492 183.67280655 471.03977092 C183.76291308 483.4676737 183.03007619 494.10119427 174.22453308 503.76742554 C167.79521087 509.62444066 161.10286255 512.38397484 152.43482971 512.41459656 C151.76074684 512.41827325 151.08666396 512.42194993 150.39215434 512.42573804 C148.12842785 512.43677027 145.86474727 512.44061796 143.60099792 512.44442749 C141.97970941 512.45069261 140.35842234 512.45733945 138.73713684 512.46434021 C133.40742493 512.48538131 128.07771273 512.4957442 122.74797058 512.50570679 C120.91219187 512.50975464 119.07641332 512.51387157 117.24063492 512.51805687 C108.61382587 512.53711045 99.98702538 512.55133984 91.36019933 512.55966884 C81.40904974 512.56943541 71.45812294 512.59573904 61.50705183 512.63616973 C53.81179568 512.66635958 46.11660329 512.68114053 38.42128909 512.68444985 C33.82723586 512.68679752 29.23342058 512.69572066 24.639431 512.72091103 C20.3137589 512.74424633 15.98848049 512.74840315 11.66276169 512.73814964 C10.07976978 512.73765546 8.49675813 512.7439412 6.91382599 512.75770569 C-4.93448256 512.85492315 -13.32443353 511.42568269 -22.17390442 503.19320679 C-28.64077459 496.23214348 -31.27410784 488.81172053 -31.22023582 479.34184647 C-31.2237419 478.55789072 -31.22724797 477.77393498 -31.23086029 476.966223 C-31.24017521 474.33537232 -31.23525074 471.70474295 -31.23039246 469.07388306 C-31.23412867 467.17017205 -31.23873007 465.26646257 -31.2441231 463.36275554 C-31.25637211 458.12807312 -31.25609039 452.89345451 -31.25373435 447.65876102 C-31.25332666 442.01444066 -31.26436074 436.37014088 -31.27384949 430.72583008 C-31.29047097 419.66612996 -31.29595956 408.60645117 -31.29707424 397.54673961 C-31.29802419 388.55764336 -31.30213181 379.56855416 -31.30847549 370.57946014 C-31.32322414 349.24657268 -31.33552488 327.91369181 -31.33447838 306.5807991 C-31.33444722 305.89856594 -31.33441606 305.21633278 -31.33438396 304.51342589 C-31.33421775 301.05560471 -31.33401967 297.59778353 -31.33381455 294.13996235 C-31.33377466 293.45323023 -31.33373477 292.76649812 -31.33369367 292.05895594 C-31.33361279 290.67021594 -31.3335292 289.28147593 -31.33344288 287.89273592 C-31.3322175 266.28843888 -31.34722819 244.68420462 -31.37458801 223.07992554 C-31.40531634 198.80577807 -31.42249471 174.53168468 -31.42066157 150.25751376 C-31.41999729 137.40559713 -31.42550605 124.55375131 -31.44701767 111.70185089 C-31.4652155 100.75950801 -31.46958827 89.81726803 -31.45599882 78.87491658 C-31.44946212 73.29192936 -31.4493775 67.70913963 -31.46670532 62.12617111 C-31.48240978 57.01366445 -31.47959906 51.90151231 -31.46213706 46.78901443 C-31.45906139 44.94111265 -31.46272084 43.09318458 -31.47385721 41.24531379 C-31.54459331 28.67373664 -30.82410457 18.5424269 -21.82234192 9.02133179 C-15.23631232 2.8088795 -9.23124886 0.0256357 0 0 Z " fill="#5D5D5D" transform="translate(179.9629669189453,-0.267425537109375)"/>
<path d="M0 0 C1.29827225 -0.0071553 2.59654449 -0.01431061 3.93415833 -0.02168274 C5.38137794 -0.02452315 6.8285978 -0.02723487 8.27581787 -0.02983093 C9.79345353 -0.03609449 11.31108766 -0.04274119 12.82872009 -0.04974365 C16.95903275 -0.06716431 21.08933381 -0.07770849 25.21967411 -0.08594918 C27.79971836 -0.09109751 30.37975901 -0.09717335 32.95980072 -0.10346031 C41.03077946 -0.12251612 49.10174903 -0.13674593 57.17274594 -0.14507228 C66.4917366 -0.15484452 75.81048972 -0.18116197 85.12939668 -0.22157317 C92.3303225 -0.25172888 99.53118022 -0.26654067 106.73216796 -0.26985329 C111.03383524 -0.27220458 115.33524886 -0.28117486 119.63684845 -0.30631447 C123.68508377 -0.32959055 127.73289836 -0.33383047 131.78118324 -0.32355309 C133.26545676 -0.32305748 134.74975095 -0.32938524 136.23396111 -0.34310913 C138.26356296 -0.36082297 140.29334742 -0.35133827 142.32299805 -0.34057617 C143.45789295 -0.34296453 144.59278786 -0.34535288 145.76207352 -0.34781361 C149.67732803 0.26675962 151.83347335 1.69675479 154.91546631 4.14717102 C157.13903835 7.48252908 157.2273537 8.80140453 157.41168213 12.71902466 C157.46934753 13.87987076 157.52701294 15.04071686 157.58642578 16.23674011 C157.63893494 17.51276093 157.69144409 18.78878174 157.74554443 20.10346985 C157.80720611 21.460971 157.86916424 22.81845872 157.93139648 24.17593384 C158.48425445 36.69490202 158.79745385 49.22225352 159.04859161 61.75050831 C159.2209558 70.14891453 159.46370817 78.53224567 159.89202881 86.92182922 C162.93724169 147.74628919 162.93724169 147.74628919 145.91799164 167.14871883 C138.41760301 175.00294756 129.05290607 184.77094323 118.91546631 189.14717102 C115.6636477 188.70927112 113.90787128 187.54214096 111.41546631 185.45967102 C97.0961142 174.44275251 79.72616128 170.09194815 61.91546631 172.14717102 C45.25904982 175.12087553 30.13057161 184.38549226 20.10296631 198.02217102 C16.73810128 203.14468319 14.12945529 208.43783679 11.91546631 214.14717102 C11.43400146 215.35373352 11.43400146 215.35373352 10.94281006 216.58467102 C5.78705995 231.93202018 8.21909128 248.73312419 14.91546631 263.14717102 C17.55908742 268.08193043 20.45659806 272.51534417 24.18890381 276.69013977 C25.91546631 279.14717102 25.91546631 279.14717102 25.73503113 281.06581116 C24.73282896 283.61099527 23.46360257 284.97327813 21.5289917 286.90596008 C20.81477554 287.62640503 20.10055939 288.34684998 19.36470032 289.08912659 C18.58867966 289.8559375 17.812659 290.62274841 17.01312256 291.41279602 C16.22022324 292.20619385 15.42732391 292.99959167 14.61039734 293.81703186 C12.93353376 295.49155534 11.25297703 297.16238744 9.56903076 298.82978821 C6.98287368 301.3923085 4.41033421 303.96793031 1.83929443 306.54560852 C0.21052879 308.16879911 -1.41900262 309.79122174 -3.04937744 311.41279602 C-4.21037209 312.57515778 -4.21037209 312.57515778 -5.39482117 313.76100159 C-6.11218948 314.46883789 -6.8295578 315.17667419 -7.56866455 315.90596008 C-8.51678261 316.84716705 -8.51678261 316.84716705 -9.48405457 317.80738831 C-11.08453369 319.14717102 -11.08453369 319.14717102 -13.08453369 319.14717102 C-13.19894193 279.50238243 -13.28706368 239.85761532 -13.33986034 200.21269467 C-13.34611398 195.53378938 -13.35258558 190.85488442 -13.35919189 186.17597961 C-13.36050345 185.24448167 -13.361815 184.31298372 -13.36316629 183.35325857 C-13.38493143 168.26438869 -13.42435905 153.17561393 -13.47029767 138.0868005 C-13.51703149 122.6078676 -13.54482258 107.12898456 -13.55497617 91.649984 C-13.56184171 82.09616958 -13.58353696 72.54262396 -13.62411603 62.98889227 C-13.65051645 56.44029969 -13.65854083 49.89184637 -13.65204058 43.34320442 C-13.64883344 39.56312926 -13.65379914 35.78352428 -13.68056107 32.00353241 C-13.70935589 27.90652102 -13.69948931 23.81051401 -13.68580627 19.71342468 C-13.70037048 18.51692586 -13.71493469 17.32042704 -13.72994024 16.08767068 C-13.6487389 7.12543352 -13.6487389 7.12543352 -10.67195415 3.42428017 C-6.85507847 0.06516531 -5.01491684 0.01890895 0 0 Z " fill="#909090" transform="translate(184.08453369140625,20.852828979492188)"/>
<path d="M0 0 C0.67664615 -0.00453111 1.3532923 -0.00906223 2.05044287 -0.01373065 C4.30491394 -0.02633338 6.55914214 -0.02475698 8.81364441 -0.02310181 C10.43537708 -0.02908966 12.05710691 -0.0358958 13.67883301 -0.04345703 C18.07565129 -0.06109848 22.47239169 -0.06581164 26.86924195 -0.0670886 C29.61885716 -0.06851186 32.36845267 -0.07278476 35.11806297 -0.07808304 C44.71810027 -0.09657745 54.31808208 -0.10475442 63.9181366 -0.10317993 C72.85454537 -0.10197882 81.7907125 -0.12307676 90.72706014 -0.15466726 C98.40964763 -0.18085394 106.09215632 -0.19154622 113.77478808 -0.19026911 C118.35872217 -0.18976017 122.94244147 -0.195406 127.52633095 -0.21662521 C131.83975006 -0.23604788 136.15275037 -0.23610472 140.46618462 -0.22159195 C142.04433431 -0.21950771 143.62251049 -0.22418176 145.20061493 -0.23631287 C157.0288657 -0.32130975 165.41413981 1.12371805 174.24797058 9.34164429 C180.71278633 16.30049617 183.34724484 23.72056109 183.2970953 33.18741798 C183.30090097 33.97077453 183.30470664 34.75413108 183.30862764 35.56122571 C183.31894622 38.19005412 183.31503675 40.81866671 183.31118774 43.44750977 C183.31564001 45.3497957 183.32095401 47.25207978 183.32705647 49.15436113 C183.34124842 54.38517903 183.34289953 59.61593755 183.34245956 64.84677196 C183.34410672 70.48704303 183.35717139 76.12728957 183.36865234 81.76754761 C183.39150968 94.10231506 183.3994238 106.43706531 183.40447879 118.77185106 C183.40773505 126.47374128 183.41425712 134.1756265 183.42148018 141.87751389 C183.44104732 163.20181766 183.45753206 184.52611496 183.46035671 205.85042763 C183.46045077 206.53241035 183.46054483 207.21439307 183.46064175 207.91704194 C183.46102022 210.68077133 183.46138422 213.44450072 183.46174473 216.20823011 C183.46201644 218.28834603 183.46229312 220.36846196 183.46257019 222.44857788 C183.46270222 223.47960423 183.46270222 223.47960423 183.46283693 224.53145939 C183.46574156 246.12236209 183.48783048 267.71317522 183.52409363 289.30404663 C183.56484165 313.56576462 183.58849586 337.827402 183.58881623 362.08916032 C183.5894009 374.93333522 183.59789982 387.77739484 183.62681389 400.62154007 C183.65132181 411.55871639 183.65861456 422.49573538 183.64356636 433.43293174 C183.63639508 439.01215932 183.63726475 444.59107621 183.65997696 450.17026901 C183.68058543 455.28171064 183.67794875 460.39260306 183.65710212 465.50403886 C183.65361083 467.349287 183.65850182 469.19457492 183.67280655 471.03977092 C183.76291308 483.4676737 183.03007619 494.10119427 174.22453308 503.76742554 C167.79521087 509.62444066 161.10286255 512.38397484 152.43482971 512.41459656 C151.76074684 512.41827325 151.08666396 512.42194993 150.39215434 512.42573804 C148.12842785 512.43677027 145.86474727 512.44061796 143.60099792 512.44442749 C141.97970941 512.45069261 140.35842234 512.45733945 138.73713684 512.46434021 C133.40742493 512.48538131 128.07771273 512.4957442 122.74797058 512.50570679 C120.91219187 512.50975464 119.07641332 512.51387157 117.24063492 512.51805687 C108.61382587 512.53711045 99.98702538 512.55133984 91.36019933 512.55966884 C81.40904974 512.56943541 71.45812294 512.59573904 61.50705183 512.63616973 C53.81179568 512.66635958 46.11660329 512.68114053 38.42128909 512.68444985 C33.82723586 512.68679752 29.23342058 512.69572066 24.639431 512.72091103 C20.3137589 512.74424633 15.98848049 512.74840315 11.66276169 512.73814964 C10.07976978 512.73765546 8.49675813 512.7439412 6.91382599 512.75770569 C-4.93448256 512.85492315 -13.32443353 511.42568269 -22.17390442 503.19320679 C-28.64077459 496.23214348 -31.27410784 488.81172053 -31.22023582 479.34184647 C-31.2237419 478.55789072 -31.22724797 477.77393498 -31.23086029 476.966223 C-31.24017521 474.33537232 -31.23525074 471.70474295 -31.23039246 469.07388306 C-31.23412867 467.17017205 -31.23873007 465.26646257 -31.2441231 463.36275554 C-31.25637211 458.12807312 -31.25609039 452.89345451 -31.25373435 447.65876102 C-31.25332666 442.01444066 -31.26436074 436.37014088 -31.27384949 430.72583008 C-31.29047097 419.66612996 -31.29595956 408.60645117 -31.29707424 397.54673961 C-31.29802419 388.55764336 -31.30213181 379.56855416 -31.30847549 370.57946014 C-31.32322414 349.24657268 -31.33552488 327.91369181 -31.33447838 306.5807991 C-31.33444722 305.89856594 -31.33441606 305.21633278 -31.33438396 304.51342589 C-31.33421775 301.05560471 -31.33401967 297.59778353 -31.33381455 294.13996235 C-31.33377466 293.45323023 -31.33373477 292.76649812 -31.33369367 292.05895594 C-31.33361279 290.67021594 -31.3335292 289.28147593 -31.33344288 287.89273592 C-31.3322175 266.28843888 -31.34722819 244.68420462 -31.37458801 223.07992554 C-31.40531634 198.80577807 -31.42249471 174.53168468 -31.42066157 150.25751376 C-31.41999729 137.40559713 -31.42550605 124.55375131 -31.44701767 111.70185089 C-31.4652155 100.75950801 -31.46958827 89.81726803 -31.45599882 78.87491658 C-31.44946212 73.29192936 -31.4493775 67.70913963 -31.46670532 62.12617111 C-31.48240978 57.01366445 -31.47959906 51.90151231 -31.46213706 46.78901443 C-31.45906139 44.94111265 -31.46272084 43.09318458 -31.47385721 41.24531379 C-31.54459331 28.67373664 -30.82410457 18.5424269 -21.82234192 9.02133179 C-15.23631232 2.8088795 -9.23124886 0.0256357 0 0 Z M-7.96296692 26.26742554 C-9.83114024 29.36314865 -10.21275563 31.63738352 -10.21185589 35.23558617 C-10.21645468 36.24279854 -10.22105348 37.25001092 -10.22579163 38.28774488 C-10.22064807 39.39320838 -10.21550451 40.49867188 -10.21020508 41.63763428 C-10.21261949 42.81492997 -10.21503391 43.99222566 -10.21752149 45.20519698 C-10.22219079 48.47935794 -10.21785628 51.75336631 -10.20975721 55.02751613 C-10.20317811 58.56530447 -10.20813211 62.10307904 -10.2116394 65.64086914 C-10.21670287 72.61292107 -10.2109956 79.58492575 -10.2017891 86.55697183 C-10.19129597 94.81427592 -10.19147895 103.07157029 -10.19196168 111.32887979 C-10.19246438 126.24248671 -10.1832851 141.15607243 -10.16877747 156.06967163 C-10.15503609 170.20444131 -10.14766087 184.33919205 -10.14826965 198.47396851 C-10.14831938 200.19430947 -10.1483667 201.91465044 -10.14841163 203.63499141 C-10.14843418 204.48553303 -10.14845672 205.33607465 -10.14847995 206.21239026 C-10.14850056 207.06223262 -10.14852117 207.91207498 -10.1485424 208.78767014 C-10.14856335 209.63661513 -10.1485843 210.48556013 -10.14860588 211.36023073 C-10.14909039 250.71726813 -10.09486162 290.0740499 -9.99478171 329.43095781 C-9.9750318 337.20430958 -9.9569202 344.9776611 -9.94130707 352.75102234 C-9.90322595 371.47793571 -9.85267816 390.20467886 -9.76418501 408.93142998 C-9.72707013 416.83016095 -9.69571913 424.7287965 -9.68158531 432.62760544 C-9.66969173 439.22596127 -9.64432583 445.82408523 -9.60069682 452.42231092 C-9.57895908 455.76503913 -9.56569012 459.10722165 -9.56535745 462.45006037 C-9.5638928 466.05945621 -9.53809056 469.66786654 -9.50588989 473.27709961 C-9.51121473 474.328711 -9.51653957 475.38032239 -9.52202576 476.46380079 C-9.45980129 480.8579909 -9.41947085 483.51041594 -7.11653423 487.32932091 C-3.14880633 490.90008081 -0.97245014 491.52015125 4.27978516 491.5415802 C5.58784622 491.55155533 6.89590729 491.56153046 8.24360657 491.57180786 C9.69663989 491.57270369 11.14967338 491.57336724 12.60270691 491.57382202 C14.13034471 491.58144212 15.65797866 491.58986936 17.18560791 491.5990448 C21.33860061 491.6210131 25.49151967 491.62979196 29.64456391 491.63487124 C32.23919376 491.63851245 34.83380426 491.64475131 37.42842674 491.65187263 C46.48034387 491.67637646 55.53220362 491.68942078 64.58415222 491.69296265 C73.02131081 491.69659736 81.4581055 491.72648556 89.89515287 491.76836723 C97.13857197 491.8030629 104.38187046 491.81851097 111.62537211 491.81920868 C115.9516617 491.82000183 120.27758083 491.82875735 124.60378456 491.85720634 C128.67428109 491.88337444 132.74409973 491.88559969 136.81464195 491.8695507 C138.3069799 491.8677351 139.79935671 491.87443717 141.29161072 491.89036942 C150.04992754 492.31629484 150.04992754 492.31629484 157.84664917 489.04246521 C161.76313641 484.0805919 162.33020428 479.81538012 162.29430199 473.62551212 C162.2995611 472.47736986 162.2995611 472.47736986 162.30492646 471.30603281 C162.31425621 468.73222442 162.3093131 466.15864151 162.30445862 463.58482361 C162.30819407 461.72449764 162.31279517 459.86417325 162.31818926 458.00385135 C162.3304474 452.88460406 162.33015549 447.76542198 162.32780051 442.64616334 C162.32739306 437.12801054 162.33842454 431.60987885 162.34791565 426.09173584 C162.36454144 415.27855455 162.37002589 404.46539507 162.37114041 393.65220208 C162.37209002 384.86566001 162.37619596 376.07912516 162.38254166 367.29258537 C162.39729011 346.44784007 162.40959095 325.60309866 162.40854454 304.75834751 C162.40851338 304.09165892 162.40848223 303.42497034 162.40845012 302.73807907 C162.40828391 299.35895725 162.40808582 295.97983543 162.40788071 292.60071362 C162.40784082 291.92959671 162.40780093 291.25847981 162.40775983 290.56702602 C162.40767895 289.2098646 162.40759536 287.85270317 162.40750905 286.49554175 C162.40628322 265.37479776 162.42130232 244.25411796 162.44865417 223.13339233 C162.47936415 199.40974702 162.49656202 175.68613766 162.49472773 151.96246761 C162.49406291 139.39906235 162.49959572 126.83572948 162.52108383 114.27234077 C162.53925827 103.57762567 162.54367368 92.8830158 162.53006499 82.18829197 C162.52351677 76.72934693 162.52348489 71.27060398 162.54077148 65.81167793 C162.55642522 60.81714776 162.55371774 55.82298122 162.53620322 50.82846033 C162.53311631 49.01895756 162.53682886 47.20942816 162.54792337 45.39995677 C162.56198438 42.94458766 162.55150651 40.4905047 162.53481102 38.03518009 C162.54474738 37.32881162 162.55468374 36.62244314 162.5649212 35.89466956 C162.49313289 30.91814364 161.13063991 28.11349186 158.03703308 24.26742554 C154.23996746 21.27407549 151.36662158 20.88876361 146.59173584 20.87301636 C144.63814148 20.85599167 144.63814148 20.85599167 142.64508057 20.83862305 C141.20875487 20.84126617 139.77242976 20.84423736 138.33610535 20.84750366 C136.81802242 20.84016139 135.29994507 20.83157469 133.78187561 20.82183838 C129.66408206 20.79963109 125.54648867 20.79669126 121.42864347 20.79858589 C117.98924578 20.79870562 114.54989046 20.79014059 111.11050457 20.78180838 C102.99573464 20.76257743 94.88106759 20.75968948 86.76628113 20.76644897 C78.39836305 20.77309109 70.03088562 20.75021804 61.66305691 20.71313524 C54.47478558 20.68243712 47.286656 20.67107828 40.09832042 20.67497206 C35.8067303 20.67703931 31.51548314 20.67156411 27.22395515 20.64707947 C23.1878777 20.62481252 19.15251677 20.62668908 15.116436 20.64700699 C13.63700618 20.6504171 12.15752813 20.64532769 10.67816353 20.63102341 C0.05475808 20.26978102 0.05475808 20.26978102 -7.96296692 26.26742554 Z " fill="#474747" transform="translate(179.9629669189453,-0.267425537109375)"/>
<path d="M0 0 C13.960295 10.62734599 22.22610001 24.77063081 25.8125 41.875 C25.9030883 43.24843548 25.96008653 44.62415911 26 46 C26.07347656 47.14726562 26.14695312 48.29453125 26.22265625 49.4765625 C27.05029559 67.11097329 20.8115498 82.22510007 9.4375 95.6875 C-2.99579424 108.78314629 -19.10302503 115.58378105 -37.02050781 116.38745117 C-54.03327609 116.78037788 -68.74481861 110.37245242 -81.6875 99.4375 C-94.05230177 87.58938303 -101.85669475 71.61297969 -102.65771484 54.42236328 C-102.8731658 35.9960084 -96.16368139 19.74614154 -83.4453125 6.31640625 C-76.21705191 -0.53081185 -68.29437591 -5.47454707 -59 -9 C-58.1853125 -9.3196875 -57.370625 -9.639375 -56.53125 -9.96875 C-37.62439275 -16.27103575 -15.87791519 -11.42134943 0 0 Z " fill="#474747" transform="translate(294,204)"/>
<path d="M0 0 C0.96744141 0.01087646 1.93488281 0.02175293 2.93164062 0.03295898 C19.8571968 0.40999937 34.44332004 6.51863207 46.43359375 18.48046875 C59.63535687 32.67859136 65.96107548 48.21968888 65.34375 67.5859375 C64.48849896 82.40010726 59.31869415 93.80520199 50.125 105.375 C49.49851562 106.21160156 48.87203125 107.04820312 48.2265625 107.91015625 C37.2147672 120.8254775 19.98827379 126.99679209 3.515625 128.76171875 C-14.21633327 129.34342326 -30.07708893 122.22184442 -43.37109375 110.82421875 C-56.28554267 98.19183267 -62.91006131 81.62573475 -63.125 63.75 C-63.06174629 46.64184856 -57.02998333 31.79225792 -45.07421875 19.51171875 C-44.34847656 18.80660156 -43.62273437 18.10148437 -42.875 17.375 C-42.26269531 16.74207031 -41.65039062 16.10914063 -41.01953125 15.45703125 C-30.18737659 4.99441705 -14.82514511 -0.22757898 0 0 Z " fill="#484747" transform="translate(254.875,42.625)"/>
<path d="M0 0 C0.92425781 0.43570312 1.84851563 0.87140625 2.80078125 1.3203125 C20.10625694 10.08076077 31.21809538 24.17544727 37.3125 42.4375 C41.79241593 59.3473466 38.99971325 75.23459513 31.375 90.75 C22.12618134 106.480088 7.62748671 116.93616571 -9.70703125 122.10546875 C-25.79606382 125.95023934 -43.0338171 123.19759052 -57.375 115.25 C-73.18454413 104.85177634 -84.38957207 89.95543248 -88.53125 71.3671875 C-90.05881389 60.39418686 -89.8574812 49.46068047 -86 39 C-85.75636719 38.20980469 -85.51273438 37.41960937 -85.26171875 36.60546875 C-79.48118988 19.64742434 -66.41168509 8.50170048 -50.92138672 0.56103516 C-36.30583052 -6.50074586 -14.54269836 -7.26007577 0 0 Z " fill="#474747" transform="translate(281,346)"/>
<path d="M0 0 C10.92901936 6.01766557 18.02735398 15.75878995 21.546875 27.65234375 C24.15348673 40.30579873 20.96721613 52.68001842 13.984375 63.43359375 C6.76916836 72.83913097 -3.95701414 79.1226715 -15.765625 80.71484375 C-28.82382098 81.81946456 -39.82697229 77.69359594 -49.953125 69.52734375 C-58.29476181 61.81589024 -62.78269283 50.97589163 -64.11328125 39.79296875 C-64.5238547 27.15444696 -59.23501069 15.77627351 -50.77734375 6.56640625 C-44.7272159 0.99793907 -37.58081876 -2.06365946 -29.765625 -4.28515625 C-19.73960679 -7.62716232 -9.22496909 -4.28674411 0 0 Z " fill="#C78418" transform="translate(276.765625,218.28515625)"/>
<path d="M0 0 C6.36114257 4.65363142 11.88394855 10.25996575 16 17 C16.4125 17.65484375 16.825 18.3096875 17.25 18.984375 C21.99594561 28.27851848 21.36600001 41.24274552 19.33984375 51.265625 C15.28307779 62.43490272 5.9307701 71.88655096 -4.6875 76.875 C-14.84040333 81.31230362 -26.45836056 81.67523533 -36.875 77.9375 C-48.59347825 72.83313217 -56.89437346 64.64181511 -62 53 C-62.391875 52.13375 -62.78375 51.2675 -63.1875 50.375 C-66.82864288 39.73165927 -65.46633809 29.12554909 -61 19 C-55.02806302 7.79820105 -46.66933715 0.81776919 -35 -4 C-23.65685815 -7.25463898 -10.14378943 -5.87056454 0 0 Z " fill="#A7E891" transform="translate(278,368)"/>
<path d="M0 0 C8.42055762 6.0207697 14.68157418 14.57202908 17.31640625 24.65625 C18.71581931 37.40209832 18.06008869 49.82693382 10.26171875 60.45703125 C2.95581153 68.98901633 -5.34664589 75.85372272 -16.68359375 77.65625 C-30.6895799 78.529834 -41.76445728 77.25115077 -52.68359375 67.65625 C-53.28945312 67.15480469 -53.8953125 66.65335937 -54.51953125 66.13671875 C-60.5510175 60.72418415 -66.16993209 51.77838853 -66.8605957 43.54663086 C-67.28662259 26.68377374 -65.78473362 16.29240787 -53.83984375 3.71484375 C-38.75776459 -10.59458791 -17.01361491 -10.86315318 0 0 Z " fill="#D7367F" transform="translate(280.68359375,71.34375)"/>
<path d="M0 0 C3.41983406 1.58798411 4.98373188 2.94309893 7.0625 6.125 C7.79146484 7.21167969 7.79146484 7.21167969 8.53515625 8.3203125 C12.37844046 15.35096042 13.52899794 21.37217206 13.4375 29.375 C13.42920166 30.30602539 13.42090332 31.23705078 13.41235352 32.19628906 C13.10927884 44.47890255 8.5167172 52.13811769 0.15625 60.94140625 C-9.25013711 69.86590877 -20.33340332 72.62282296 -33.0078125 72.33984375 C-43.19598174 71.74762262 -51.56764894 66.6641494 -59 60 C-53.38062338 53.14092885 -47.09685489 46.96990509 -40.8203125 40.72265625 C-39.64039553 39.54460742 -38.46070142 38.36633534 -37.28121948 37.18785095 C-34.19610309 34.10652858 -31.10799411 31.02822284 -28.01922607 27.95056152 C-24.85994267 24.80155966 -21.70353484 21.64967829 -18.546875 18.49804688 C-12.36737473 12.3292289 -6.1847061 6.16359871 0 0 Z " fill="#73CB5D" transform="translate(285,376)"/>
<path d="M0 0 C5.35844103 3.06955294 9.44645246 7.17081547 13.76953125 11.5390625 C14.49113937 12.26112885 15.2127475 12.98319519 15.95622253 13.72714233 C17.47213533 15.2460636 18.98562972 16.76740192 20.49682617 18.29101562 C22.81698576 20.62952123 25.14513794 22.95983624 27.47460938 25.2890625 C28.94839103 26.76775653 30.42171466 28.24690724 31.89453125 29.7265625 C32.59238235 30.42552643 33.29023346 31.12449036 34.00923157 31.84463501 C34.6504747 32.492258 35.29171783 33.13988098 35.95239258 33.80712891 C36.51831619 34.37686432 37.08423981 34.94659973 37.66731262 35.53359985 C40.2837576 38.41256108 40.32778001 41.07225527 40.29296875 44.89453125 C39.8224574 48.27593947 38.13740472 50.42254136 36 53 C33.65986288 54.17006856 31.98542048 54.33836406 29.375 54.5 C28.14910156 54.60828125 28.14910156 54.60828125 26.8984375 54.71875 C22.16107816 53.54398704 19.44127528 50.35232906 16 47 C15.48963196 46.50526184 14.97926392 46.01052368 14.45343018 45.50079346 C10.78707383 41.93959606 7.15735604 38.34312365 3.54345703 34.72875977 C1.61379025 32.80130309 -0.32377307 30.88201892 -2.26171875 28.96289062 C-3.49527984 27.73225997 -4.72836994 26.501157 -5.9609375 25.26953125 C-6.53798431 24.69966995 -7.11503113 24.12980865 -7.70956421 23.54267883 C-11.88698853 19.34121377 -13.81376881 16.95542747 -14.375 11.0625 C-14.29267724 7.90483402 -13.97145344 6.95310208 -12.25 4.125 C-8.3110503 0.40488084 -5.47435346 -0.65692242 0 0 Z " fill="#474747" transform="translate(419,458)"/>
<path d="M0 0 C3.6578218 2.03993908 5.66946174 3.50419262 8 7 C8.60623945 13.16343441 7.78869793 16.07260021 4 21 C1.6528124 23.61199282 -0.8243682 26.08148411 -3.3203125 28.55078125 C-4.0201828 29.25019333 -4.7200531 29.94960541 -5.44113159 30.67021179 C-6.9129742 32.13904662 -8.38723313 33.60546374 -9.86376953 35.06958008 C-12.12984953 37.31731026 -14.38773195 39.57303368 -16.64453125 41.83007812 C-18.07765234 43.25828695 -19.51123012 44.68603768 -20.9453125 46.11328125 C-21.62240265 46.78925858 -22.2994928 47.4652359 -22.99710083 48.16169739 C-23.62470306 48.78291977 -24.2523053 49.40414215 -24.89892578 50.04418945 C-25.72688156 50.86642754 -25.72688156 50.86642754 -26.57156372 51.70527649 C-29.84451434 54.67185343 -33.28856181 54.38380889 -37.515625 54.359375 C-40 54 -40 54 -43.0625 51.625 C-45.6833958 48.07410891 -46.55772553 45.67181511 -46.44458008 41.16992188 C-44.73189659 32.81059684 -32.23231646 24.04627871 -26.30151367 18.11621094 C-24.3016301 16.11411809 -22.30991231 14.10412576 -20.31835938 12.09375 C-19.04215584 10.81461593 -17.76547992 9.53595294 -16.48828125 8.2578125 C-15.89654617 7.65889191 -15.3048111 7.05997131 -14.69514465 6.44290161 C-13.85858589 5.61095779 -13.85858589 5.61095779 -13.00512695 4.76220703 C-12.27734795 4.0322905 -12.27734795 4.0322905 -11.53486633 3.28762817 C-7.87962552 0.22117805 -4.73745884 -0.56849506 0 0 Z " fill="#474747" transform="translate(99,458)"/>
<path d="M0 0 C3.6578218 2.03993908 5.66946174 3.50419262 8 7 C8.60623945 13.16343441 7.78869793 16.07260021 4 21 C1.6528124 23.61199282 -0.8243682 26.08148411 -3.3203125 28.55078125 C-4.0201828 29.25019333 -4.7200531 29.94960541 -5.44113159 30.67021179 C-6.9129742 32.13904662 -8.38723313 33.60546374 -9.86376953 35.06958008 C-12.12984953 37.31731026 -14.38773195 39.57303368 -16.64453125 41.83007812 C-18.07765234 43.25828695 -19.51123012 44.68603768 -20.9453125 46.11328125 C-21.62240265 46.78925858 -22.2994928 47.4652359 -22.99710083 48.16169739 C-23.62470306 48.78291977 -24.2523053 49.40414215 -24.89892578 50.04418945 C-25.72688156 50.86642754 -25.72688156 50.86642754 -26.57156372 51.70527649 C-29.84451434 54.67185343 -33.28856181 54.38380889 -37.515625 54.359375 C-40 54 -40 54 -43.0625 51.625 C-45.6833958 48.07410891 -46.55772553 45.67181511 -46.44458008 41.16992188 C-44.73189659 32.81059684 -32.23231646 24.04627871 -26.30151367 18.11621094 C-24.3016301 16.11411809 -22.30991231 14.10412576 -20.31835938 12.09375 C-19.04215584 10.81461593 -17.76547992 9.53595294 -16.48828125 8.2578125 C-15.89654617 7.65889191 -15.3048111 7.05997131 -14.69514465 6.44290161 C-13.85858589 5.61095779 -13.85858589 5.61095779 -13.00512695 4.76220703 C-12.27734795 4.0322905 -12.27734795 4.0322905 -11.53486633 3.28762817 C-7.87962552 0.22117805 -4.73745884 -0.56849506 0 0 Z " fill="#474747" transform="translate(451,298)"/>
<path d="M0 0 C5.35844103 3.06955294 9.44645246 7.17081547 13.76953125 11.5390625 C14.49113937 12.26112885 15.2127475 12.98319519 15.95622253 13.72714233 C17.47213533 15.2460636 18.98562972 16.76740192 20.49682617 18.29101562 C22.81698576 20.62952123 25.14513794 22.95983624 27.47460938 25.2890625 C28.94839103 26.76775653 30.42171466 28.24690724 31.89453125 29.7265625 C32.59238235 30.42552643 33.29023346 31.12449036 34.00923157 31.84463501 C34.6504747 32.492258 35.29171783 33.13988098 35.95239258 33.80712891 C36.51831619 34.37686432 37.08423981 34.94659973 37.66731262 35.53359985 C40.2837576 38.41256108 40.32778001 41.07225527 40.29296875 44.89453125 C39.8224574 48.27593947 38.13740472 50.42254136 36 53 C33.65986288 54.17006856 31.98542048 54.33836406 29.375 54.5 C28.14910156 54.60828125 28.14910156 54.60828125 26.8984375 54.71875 C22.16107816 53.54398704 19.44127528 50.35232906 16 47 C15.48963196 46.50526184 14.97926392 46.01052368 14.45343018 45.50079346 C10.78707383 41.93959606 7.15735604 38.34312365 3.54345703 34.72875977 C1.61379025 32.80130309 -0.32377307 30.88201892 -2.26171875 28.96289062 C-3.49527984 27.73225997 -4.72836994 26.501157 -5.9609375 25.26953125 C-6.53798431 24.69966995 -7.11503113 24.12980865 -7.70956421 23.54267883 C-11.88698853 19.34121377 -13.81376881 16.95542747 -14.375 11.0625 C-14.29267724 7.90483402 -13.97145344 6.95310208 -12.25 4.125 C-8.3110503 0.40488084 -5.47435346 -0.65692242 0 0 Z " fill="#474747" transform="translate(67,298)"/>
<path d="M0 0 C1.41694656 -0.01441132 1.41694656 -0.01441132 2.86251831 -0.02911377 C4.39067673 -0.03548859 4.39067673 -0.03548859 5.94970703 -0.04199219 C6.99901398 -0.04769226 8.04832092 -0.05339233 9.12942505 -0.05926514 C11.3502705 -0.06871405 13.57112997 -0.07524869 15.79199219 -0.07910156 C19.18726066 -0.08880926 22.58192435 -0.11983503 25.97705078 -0.15136719 C28.13459927 -0.15789714 30.29215209 -0.16314764 32.44970703 -0.16699219 C33.46443085 -0.17933899 34.47915466 -0.19168579 35.52462769 -0.20440674 C44.21530624 -0.17697944 44.21530624 -0.17697944 48.33251953 3.16113281 C48.92162109 3.61746094 49.51072266 4.07378906 50.11767578 4.54394531 C52.24643521 7.37772796 51.7905764 10.29500346 51.69580078 13.71191406 C51.19094968 17.11558765 49.84570446 18.8696995 47.33251953 21.16113281 C44.85890561 22.39793977 43.17848177 22.30801048 40.41137695 22.33813477 C39.38658737 22.35097 38.36179779 22.36380524 37.30595398 22.37702942 C35.63881096 22.38810982 35.63881096 22.38810982 33.93798828 22.39941406 C32.79848221 22.40748581 31.65897614 22.41555756 30.48493958 22.4238739 C28.06980922 22.43772268 25.65465923 22.44844127 23.23950195 22.45629883 C19.54552129 22.47351397 15.85243482 22.51739475 12.15869141 22.56152344 C9.81429696 22.57164987 7.46989489 22.58016613 5.12548828 22.58691406 C3.4674543 22.61317619 3.4674543 22.61317619 1.77592468 22.63996887 C-5.90437712 22.61824363 -5.90437712 22.61824363 -9.84204102 20.25952148 C-13.10096742 16.51330343 -13.05787072 13.47864378 -13.02294922 8.64550781 C-12.66748047 6.16113281 -12.66748047 6.16113281 -10.35498047 3.09863281 C-6.8008638 0.53636265 -4.26696733 0.03506119 0 0 Z " fill="#464646" transform="translate(428.66748046875,393.8388671875)"/>
<path d="M0 0 C1.41694656 -0.01441132 1.41694656 -0.01441132 2.86251831 -0.02911377 C4.39067673 -0.03548859 4.39067673 -0.03548859 5.94970703 -0.04199219 C6.99901398 -0.04769226 8.04832092 -0.05339233 9.12942505 -0.05926514 C11.3502705 -0.06871405 13.57112997 -0.07524869 15.79199219 -0.07910156 C19.18726066 -0.08880926 22.58192435 -0.11983503 25.97705078 -0.15136719 C28.13459927 -0.15789714 30.29215209 -0.16314764 32.44970703 -0.16699219 C33.46443085 -0.17933899 34.47915466 -0.19168579 35.52462769 -0.20440674 C44.21530624 -0.17697944 44.21530624 -0.17697944 48.33251953 3.16113281 C48.92162109 3.61746094 49.51072266 4.07378906 50.11767578 4.54394531 C52.24643521 7.37772796 51.7905764 10.29500346 51.69580078 13.71191406 C51.19094968 17.11558765 49.84570446 18.8696995 47.33251953 21.16113281 C44.85890561 22.39793977 43.17848177 22.30801048 40.41137695 22.33813477 C39.38658737 22.35097 38.36179779 22.36380524 37.30595398 22.37702942 C35.63881096 22.38810982 35.63881096 22.38810982 33.93798828 22.39941406 C32.79848221 22.40748581 31.65897614 22.41555756 30.48493958 22.4238739 C28.06980922 22.43772268 25.65465923 22.44844127 23.23950195 22.45629883 C19.54552129 22.47351397 15.85243482 22.51739475 12.15869141 22.56152344 C9.81429696 22.57164987 7.46989489 22.58016613 5.12548828 22.58691406 C3.4674543 22.61317619 3.4674543 22.61317619 1.77592468 22.63996887 C-5.90437712 22.61824363 -5.90437712 22.61824363 -9.84204102 20.25952148 C-13.10096742 16.51330343 -13.05787072 13.47864378 -13.02294922 8.64550781 C-12.66748047 6.16113281 -12.66748047 6.16113281 -10.35498047 3.09863281 C-6.8008638 0.53636265 -4.26696733 0.03506119 0 0 Z " fill="#464646" transform="translate(44.66748046875,393.8388671875)"/>
</svg>
